<svg xmlns="http://www.w3.org/2000/svg" width="17" height="15" viewBox="0 0 17 15"><defs><style>.a{opacity:0.75;}.b{fill:#fff;}</style></defs><g class="a" transform="translate(0 -22.379)"><g transform="translate(0 22.379)"><path class="b" d="M5.03,117.065a10.78,10.78,0,0,0,1.4-.09V112.1a10.785,10.785,0,0,0-1.4-.09C2.252,112.009,0,113.03,0,114.29v.495C0,116.044,2.252,117.065,5.03,117.065Z" transform="translate(-0.001 -108.288)"/><path class="b" d="M5.03,216.416a10.8,10.8,0,0,0,1.4-.09V214.9a10.785,10.785,0,0,1-1.4.09c-2.424,0-4.448-.778-4.923-1.814a1.112,1.112,0,0,0-.106.467v.495C0,215.4,2.252,216.416,5.03,216.416Z" transform="translate(-0.001 -205.208)"/><path class="b" d="M6.43,274.092v-.111a10.785,10.785,0,0,1-1.4.09c-2.424,0-4.448-.778-4.923-1.814a1.112,1.112,0,0,0-.106.467v.495c0,1.26,2.251,2.281,5.029,2.281a10.682,10.682,0,0,0,1.589-.116,1.8,1.8,0,0,1-.188-.8Z" transform="translate(0 -261.868)"/><path class="b" d="M173.268,22.379c-2.777,0-5.029,1.021-5.029,2.281v.495c0,1.26,2.251,2.281,5.029,2.281s5.029-1.021,5.029-2.281V24.66C178.3,23.4,176.045,22.379,173.268,22.379Z" transform="translate(-161.296 -22.379)"/><path class="b" d="M173.268,125.358c-2.424,0-4.448-.778-4.923-1.814a1.112,1.112,0,0,0-.106.467v.495c0,1.26,2.251,2.281,5.029,2.281s5.029-1.021,5.029-2.281v-.495a1.112,1.112,0,0,0-.106-.467C177.715,124.58,175.692,125.358,173.268,125.358Z" transform="translate(-161.296 -119.32)"/><path class="b" d="M173.268,184.442c-2.424,0-4.448-.778-4.923-1.814a1.112,1.112,0,0,0-.106.467v.495c0,1.26,2.251,2.281,5.029,2.281s5.029-1.021,5.029-2.281V183.1a1.112,1.112,0,0,0-.106-.467C177.715,183.664,175.692,184.442,173.268,184.442Z" transform="translate(-161.296 -175.937)"/><path class="b" d="M173.268,246.715c-2.424,0-4.448-.778-4.923-1.814a1.112,1.112,0,0,0-.106.467v.495c0,1.26,2.251,2.281,5.029,2.281s5.029-1.021,5.029-2.281v-.495a1.112,1.112,0,0,0-.106-.467C177.715,245.936,175.692,246.715,173.268,246.715Z" transform="translate(-161.296 -235.61)"/><path class="b" d="M173.268,305.8c-2.424,0-4.448-.778-4.923-1.814a1.113,1.113,0,0,0-.106.467v.495c0,1.26,2.251,2.281,5.029,2.281s5.029-1.021,5.029-2.281v-.495a1.112,1.112,0,0,0-.106-.467C177.715,305.019,175.692,305.8,173.268,305.8Z" transform="translate(-161.296 -292.226)"/></g></g></svg>