<svg xmlns="http://www.w3.org/2000/svg" width="17" height="12.5" viewBox="0 0 17 12.5"><defs><style>.a{opacity:0.75;}.b{fill:#fff;}</style></defs><g class="a" transform="translate(0 -70.061)"><g transform="translate(5.18 70.075)"><g transform="translate(0 0)"><path class="b" d="M166.262,72.116a.352.352,0,0,1-.178.082A6.534,6.534,0,0,1,162.8,71.8a4.557,4.557,0,0,0-1.388-.312,3.412,3.412,0,0,0-1.884.747c-.13.085-.256.168-.381.244L157.3,74.335a.832.832,0,0,0,.588,1.419h.284a.823.823,0,0,0,.524-.185c.136-.111.292-.241.459-.381a10.066,10.066,0,0,1,2.138-1.543.348.348,0,0,1,.125-.023.355.355,0,0,1,.232.087l5.134,4.449,2.093-.83V70.488Z" transform="translate(-157.053 -70.488)"/></g></g><g transform="translate(2.131 77.557)"><g transform="translate(0 0)"><path class="b" d="M65.082,292.632a.693.693,0,0,0-.578.309l-.388.582a.693.693,0,0,0-.117.385v.161a.694.694,0,0,0,1.272.385l.388-.582a.693.693,0,0,0,.117-.385v-.161A.694.694,0,0,0,65.082,292.632Z" transform="translate(-64 -292.632)"/></g></g><g transform="translate(3.186 78.299)"><g transform="translate(0 0)"><path class="b" d="M97.437,313.965h-.024a.7.7,0,0,0-.556.278l-.718.958a.692.692,0,0,0-.139.416v.14a.694.694,0,0,0,.694.694h.024a.7.7,0,0,0,.556-.278l.718-.958a.692.692,0,0,0,.139-.416v-.14A.694.694,0,0,0,97.437,313.965Z" transform="translate(-96 -313.965)"/></g></g><g transform="translate(4.602 79.01)"><g transform="translate(0 0)"><path class="b" d="M140.1,335.3h-.024a.7.7,0,0,0-.556.278l-.718.958a.692.692,0,0,0-.139.416v.14a.694.694,0,0,0,.694.694h.024a.7.7,0,0,0,.556-.278l.718-.958a.692.692,0,0,0,.139-.416v-.14A.694.694,0,0,0,140.1,335.3Z" transform="translate(-138.667 -335.299)"/></g></g><g transform="translate(6.018 79.72)"><g transform="translate(0 0)"><path class="b" d="M182.771,356.632h-.024a.7.7,0,0,0-.556.278l-.718.958a.692.692,0,0,0-.139.416v.14a.694.694,0,0,0,.694.694h.024a.7.7,0,0,0,.556-.278l.718-.958a.693.693,0,0,0,.138-.416v-.14h0A.694.694,0,0,0,182.771,356.632Z" transform="translate(-181.334 -356.632)"/></g></g><g transform="translate(8.116 81.292)"><g transform="translate(0 0)"><path class="b" d="M245.655,404.391l-.643-.548c-.021.033-.031.073-.055.105l-.457.609.478.443a.358.358,0,0,0,.511.009C245.667,404.832,245.737,404.493,245.655,404.391Z" transform="translate(-244.501 -403.843)"/></g></g><g transform="translate(0 70.061)"><g transform="translate(0 0)"><path class="b" d="M14.656,78.6,9.5,74.024a15.057,15.057,0,0,0-1.742,1.348c-.169.144-.326.277-.464.39a1.5,1.5,0,0,1-.969.349H6.042a1.526,1.526,0,0,1-1.374-.861,1.567,1.567,0,0,1,.287-1.8l1.977-1.975c.1-.062.2-.131.308-.2a10.509,10.509,0,0,0-3.782-.021,2.456,2.456,0,0,1-1.983-.549L0,70.061v6.923l1.841.776.2-.3a1.384,1.384,0,0,1,2.385.107,1.232,1.232,0,0,1,.171-.021,1.411,1.411,0,0,1,1.244.738,1.274,1.274,0,0,1,.172-.021A1.411,1.411,0,0,1,7.254,79a1.377,1.377,0,0,1,.172-.021h.025a1.411,1.411,0,0,1,1.4,1.418v.14l.889.766,0,0,.338.291a1.151,1.151,0,0,0,.717.251.539.539,0,0,0,.339-.95L7.915,78.181a.362.362,0,0,1-.045-.505.351.351,0,0,1,.5-.045l3.981,3.361a.606.606,0,0,0,.389.142h.1a.613.613,0,0,0,.609-.617.62.62,0,0,0-.206-.465L9.331,76.747a.362.362,0,0,1-.045-.506.351.351,0,0,1,.5-.046l3.9,3.295.018.016.058.049a.609.609,0,0,0,.394.145h.095a.621.621,0,0,0,.616-.624A.63.63,0,0,0,14.656,78.6Z" transform="translate(0 -70.061)"/></g></g></g></svg>