<svg xmlns="http://www.w3.org/2000/svg" width="17" height="17" viewBox="0 0 17 17"><defs><style>.a{opacity:0.75;}.b{fill:#fff;}</style></defs><g class="a" transform="translate(0)"><g transform="translate(5.001 2)"><path class="b" d="M247.45,60.5c0,1.52-1.18,2.5-3,2.5h-1.44c-.17-.2-.34-.4-.51-.58l.14-.43c.66-.03,1.81-.27,1.81-1.49a.5.5,0,0,1,1,0,2.383,2.383,0,0,1-.47,1.46c.65-.1,1.47-.42,1.47-1.46a.5.5,0,1,1,1,0Z" transform="translate(-239.484 -59.999)"/><g transform="translate(0 9)"><ellipse class="b" cx="1.066" cy="2.133" rx="1.066" ry="2.133" transform="translate(4.837 0.97)"/><path class="b" d="M156,335c0-1.682.878-3,2-3h-5.5a.5.5,0,0,0-.5.5v5a.5.5,0,0,0,.5.5H158C156.878,338,156,336.682,156,335Zm-1.5.5a.5.5,0,1,1,.5-.5A.5.5,0,0,1,154.5,335.5Z" transform="translate(-152 -332)"/><path class="b" d="M337.5,332H332c1.122,0,2,1.318,2,3s-.878,3-2,3h5.5a.5.5,0,0,0,.5-.5v-5A.5.5,0,0,0,337.5,332Zm-2,3.5a.5.5,0,1,1,.5-.5A.5.5,0,0,1,335.5,335.5Z" transform="translate(-326 -332)"/></g></g><g transform="translate(0 0)"><path class="b" d="M62.651,4h4.31a1.275,1.275,0,0,0,.19-.01l.78-2.33a.5.5,0,0,0-.47-.66h-1.29a1.253,1.253,0,0,1-.86-.35A2.169,2.169,0,0,0,63.751,0h-2.29a.5.5,0,0,0-.45.72Z" transform="translate(-58.928 0)"/><path class="b" d="M4.033,156.5a1.5,1.5,0,0,1,1.5-1.492h5.8A17.645,17.645,0,0,0,8.593,150H3.473C1.573,152.307,0,156.03,0,158.486c0,2.979,1.258,3.469,4.033,3.51Z" transform="translate(0 -145)"/></g></g></svg>