<svg xmlns="http://www.w3.org/2000/svg" width="17" height="17" viewBox="0 0 17 17"><defs><style>.a{fill:#fff;}</style></defs><g transform="translate(-10.359 0.002)"><g transform="translate(10.359 -0.002)"><g transform="translate(0 0)"><path class="a" d="M26.539,8.718a.48.48,0,0,1,0-.44l.661-1.3a1.447,1.447,0,0,0-.664-1.96l-1.329-.677a.5.5,0,0,1-.27-.356l-.26-1.422A1.531,1.531,0,0,0,22.94,1.355l-1.49.2a.533.533,0,0,1-.436-.136l-1.081-1a1.585,1.585,0,0,0-2.148,0l-1.081,1a.533.533,0,0,1-.436.136l-1.49-.2A1.531,1.531,0,0,0,13.04,2.566l-.26,1.422a.5.5,0,0,1-.27.356l-1.329.677a1.447,1.447,0,0,0-.664,1.96l.661,1.3a.48.48,0,0,1,0,.44l-.661,1.3a1.447,1.447,0,0,0,.664,1.96l1.329.677a.5.5,0,0,1,.27.356l.26,1.422a1.521,1.521,0,0,0,1.516,1.226,1.646,1.646,0,0,0,.221-.015l1.49-.2a.533.533,0,0,1,.436.136l1.081,1a1.585,1.585,0,0,0,2.147,0l1.081-1a.534.534,0,0,1,.436-.136l1.49.2a1.531,1.531,0,0,0,1.737-1.211l.26-1.422a.5.5,0,0,1,.27-.356l1.329-.677a1.447,1.447,0,0,0,.664-1.96ZM16.815,4.086a1.839,1.839,0,0,1,1.873,1.8,1.875,1.875,0,0,1-3.747,0A1.839,1.839,0,0,1,16.815,4.086Zm-.967,7.994a.526.526,0,0,1-.723,0,.476.476,0,0,1,0-.693L21.87,4.916a.526.526,0,0,1,.723,0,.476.476,0,0,1,0,.693Zm5.054.83a1.8,1.8,0,1,1,1.873-1.8A1.839,1.839,0,0,1,20.9,12.91Z" transform="translate(-10.359 0.002)"/></g></g><g transform="translate(20.243 10.452)"><path class="a" d="M291.152,310.141a.7.7,0,1,0,.7.7A.7.7,0,0,0,291.152,310.141Z" transform="translate(-290.452 -310.141)"/></g><g transform="translate(16.075 5.144)"><g transform="translate(0)"><path class="a" d="M173.033,152.646a.7.7,0,1,0,.7.7A.7.7,0,0,0,173.033,152.646Z" transform="translate(-172.333 -152.646)"/></g></g></g></svg>